<?xml version="1.0" encoding="UTF-8" standalone="no"?>
<!-- Created with Inkscape (http://www.inkscape.org/) -->

<svg
   xmlns:dc="http://purl.org/dc/elements/1.1/"
   xmlns:cc="http://creativecommons.org/ns#"
   xmlns:rdf="http://www.w3.org/1999/02/22-rdf-syntax-ns#"
   xmlns:svg="http://www.w3.org/2000/svg"
   xmlns="http://www.w3.org/2000/svg"
   xmlns:sodipodi="http://sodipodi.sourceforge.net/DTD/sodipodi-0.dtd"
   xmlns:inkscape="http://www.inkscape.org/namespaces/inkscape"
   width="885"
   height="300"
   viewBox="0 0 884.99996 299.99998"
   id="svg2"
   version="1.1"
   inkscape:version="0.91 r13725"
   sodipodi:docname="banner.svg">
  <defs
     id="defs4" />
  <sodipodi:namedview
     id="base"
     pagecolor="#ffffff"
     bordercolor="#666666"
     borderopacity="1.0"
     inkscape:pageopacity="0.0"
     inkscape:pageshadow="2"
     inkscape:zoom="0.98994949"
     inkscape:cx="307.81682"
     inkscape:cy="176.65195"
     inkscape:document-units="px"
     inkscape:current-layer="layer1"
     showgrid="false"
     inkscape:window-width="1600"
     inkscape:window-height="873"
     inkscape:window-x="0"
     inkscape:window-y="27"
     inkscape:window-maximized="1"
     units="px" />
  <metadata
     id="metadata7">
    <rdf:RDF>
      <cc:Work
         rdf:about="">
        <dc:format>image/svg+xml</dc:format>
        <dc:type
           rdf:resource="http://purl.org/dc/dcmitype/StillImage" />
        <dc:title />
      </cc:Work>
    </rdf:RDF>
  </metadata>
  <g
     inkscape:label="Capa 1"
     inkscape:groupmode="layer"
     id="layer1"
     transform="translate(0,-752.36226)">
    <g
       style="font-style:normal;font-weight:normal;font-size:40px;line-height:125%;font-family:sans-serif;letter-spacing:0px;word-spacing:0px;fill:#000000;fill-opacity:1;stroke:none;stroke-width:1px;stroke-linecap:butt;stroke-linejoin:miter;stroke-opacity:1"
       id="text4146">
      <g
         style="font-style:normal;font-weight:normal;font-size:40px;line-height:125%;font-family:sans-serif;letter-spacing:0px;word-spacing:0px;fill:#000000;fill-opacity:1;stroke:none;stroke-width:1px;stroke-linecap:butt;stroke-linejoin:miter;stroke-opacity:1"
         id="text4154" />
    </g>
    <g
       id="g3645"
       transform="translate(13.812313,-8.5174293e-7)">
      <g
         id="g3406"
         transform="matrix(0.16608649,0,0,0.16608649,775.0202,891.91285)">
        <g
           id="g3393"
           transform="translate(-941.56112,-290.71242)">
          <path
             id="path3"
             d="m 16.516,224.391 c 0,166.249 137.882,115.798 239.484,115.621 101.602,0.176 239.484,50.627 239.484,-115.621 l -132.13,-58.107 -214.71,0 -132.128,58.107 z"
             style="fill:#c1c95a"
             inkscape:connector-curvature="0" />
          <path
             id="path5"
             d="m 99.097,273.639 14.136,0 c 12.816,-7.003 25.392,-18.411 36.376,-36.893 25.234,-42.457 79.794,-43.74 106.392,-43.74 26.598,0 81.158,1.283 106.392,43.74 10.984,18.482 23.56,29.891 36.376,36.893 l 14.136,0 0,-148.646 -313.808,0 0,148.646 z"
             style="fill:#a1c65d"
             inkscape:connector-curvature="0" />
          <path
             id="path7"
             d="M 468.783,80.706 C 436.047,24.34 320.921,58.929 256.001,58.929 c -64.92,0 -180.048,-34.589 -212.784,21.777 -76.611,131.913 -8.184,217.707 24.552,217.707 25.308,0 57.48,-8.71 81.84,-64.419 25.234,-57.709 79.794,-59.452 106.392,-59.452 26.598,0 81.158,1.743 106.392,59.452 24.359,55.709 56.533,64.419 81.84,64.419 32.735,0 101.162,-85.794 24.55,-217.707 z"
             style="fill:#82c35f"
             inkscape:connector-curvature="0" />
          <g
             id="g9">
            <path
               id="path11"
               d="m 38.122,281.598 c 1.055,0.106 2.099,0.297 3.168,0.297 31.926,0 57.807,-48.064 57.807,-107.355 0,-52.262 -20.118,-95.755 -46.75,-105.342 -3.484,3.345 -6.582,7.121 -9.13,11.507 -56.654,97.551 -33.984,169.831 -5.095,200.893 z"
               style="fill:#73af55"
               inkscape:connector-curvature="0" />
            <path
               id="path13"
               d="m 473.882,281.598 c -1.055,0.106 -2.099,0.297 -3.168,0.297 -31.926,0 -57.807,-48.064 -57.807,-107.355 0,-52.262 20.118,-95.755 46.75,-105.342 3.484,3.345 6.582,7.121 9.13,11.507 56.654,97.551 33.985,169.831 5.095,200.893 z"
               style="fill:#73af55"
               inkscape:connector-curvature="0" />
          </g>
          <ellipse
             id="ellipse15"
             ry="78.452003"
             rx="41.290001"
             cy="170.715"
             cx="41.290001"
             style="fill:#ffce56" />
          <ellipse
             id="ellipse17"
             ry="45.418999"
             rx="16.516001"
             cy="170.715"
             cx="41.290001"
             style="fill:#464655" />
          <ellipse
             id="ellipse19"
             ry="78.452003"
             rx="41.290001"
             cy="170.715"
             cx="470.711"
             style="fill:#ffce56" />
          <ellipse
             id="ellipse21"
             ry="45.418999"
             rx="16.516001"
             cy="170.715"
             cx="470.711"
             style="fill:#464655" />
          <path
             id="path23"
             d="m 294.871,449.477 -26.549,-26.549 c 0.011,-0.218 0.065,-0.424 0.065,-0.645 l 0,-247.742 c 0,-6.839 -5.548,-12.387 -12.387,-12.387 -6.839,0 -12.387,5.548 -12.387,12.387 l 0,247.742 c 0,0.221 0.054,0.427 0.065,0.645 l -26.549,26.549 c -3.226,3.226 -3.226,8.452 0,11.678 3.226,3.226 8.451,3.226 11.677,0 l 26.549,-26.549 c 0.218,0.011 0.424,0.065 0.644,0.065 0.22,0 0.427,-0.054 0.645,-0.065 l 26.549,26.549 c 1.613,1.613 3.725,2.42 5.838,2.42 2.113,0 4.226,-0.806 5.838,-2.42 3.228,-3.226 3.228,-8.452 0.002,-11.678 z"
             style="fill:#ff825f"
             inkscape:connector-curvature="0" />
        </g>
        <path
           d="m -242.5814,633.15189 c 11.80758,0 22.92059,-3.47282 32.64448,-11.11302 l 73.62372,-55.56507 c 10.41845,-8.33476 15.97495,-18.05865 15.28039,-29.86622 0,-11.80758 -5.55651,-25.00429 -15.28039,-38.20099 l -229.20592,-302.82958 6.25107,-7.64019 c 47.92487,-59.03789 79.18022,-129.883356 89.59868,-206.285326 31.25535,-227.122234 -139.60725,-453.549914 -366.72948,-484.805264 -19.44778,-2.77825 -38.89555,-4.16738 -57.64876,-4.16738 -206.28547,0 -384.09379,154.88764 -412.57089,359.78385 -15.2804,108.351884 15.975,223.649414 86.1259,316.02634 69.45639,92.37693 172.25191,153.49851 280.6038,168.77891 19.44778,2.77825 38.20099,4.16738 57.64876,4.16738 54.17595,0 107.65733,-10.41845 157.6659,-31.25535 l 8.33476,-3.47282 229.90048,304.2187 c 10.41845,14.58583 26.39341,22.22603 43.7575,22.22603 l 0,0 z M -377.3267,-32.239776 C -398.1636,119.8696 -529.43609,234.47256 -682.9346,234.47256 c -14.58583,0 -28.4771,-0.69456 -43.06293,-2.77825 -80.56936,-11.11301 -156.97147,-57.64876 -209.75829,-127.1051 -52.78682,-69.456336 -76.40198,-155.582196 -65.28898,-236.15156 20.83693,-152.10938 152.10955,-266.71235 305.60806,-266.71235 13.89127,0 28.4771,0.69457 43.06293,2.77826 170.8626,23.61515 298.66226,193.78319 275.04711,363.256664 z"
           id="path49"
           inkscape:connector-curvature="0"
           style="fill:#333333" />
      </g>
      <g
         id="text3585"
         style="font-style:normal;font-weight:normal;font-size:40px;line-height:125%;font-family:sans-serif;letter-spacing:0px;word-spacing:0px;fill:#000000;fill-opacity:1;stroke:none;stroke-width:1px;stroke-linecap:butt;stroke-linejoin:miter;stroke-opacity:1">
        <path
           id="path3627"
           style="font-style:normal;font-variant:normal;font-weight:200;font-stretch:normal;font-size:112.49998474px;font-family:Lato;-inkscape-font-specification:'Lato Ultra-Light'"
           d="m 105.54108,898.93099 0,33.07499 -3.09375,0 0,-79.08749 18.9,0 q 13.38749,0 20.30624,5.7375 6.975,5.7375 6.975,17.2125 0,5.00625 -1.96875,9.28125 -1.9125,4.21875 -5.5125,7.3125 -3.6,3.0375 -8.6625,4.78125 -5.00625,1.6875 -11.13749,1.6875 l -15.80625,0 z m 0,-2.53125 15.80625,0 q 5.56874,0 10.01249,-1.575 4.5,-1.575 7.59375,-4.33125 3.15,-2.75625 4.8375,-6.525 1.6875,-3.76875 1.6875,-8.1 0,-10.0125 -6.01875,-15.24375 -6.01875,-5.23125 -18.11249,-5.23125 l -15.80625,0 0,41.00625 z"
           inkscape:connector-curvature="0" />
        <path
           id="path3629"
           style="font-style:normal;font-variant:normal;font-weight:200;font-stretch:normal;font-size:112.49998474px;font-family:Lato;-inkscape-font-specification:'Lato Ultra-Light'"
           d="m 174.32427,950.62473 q -0.28125,0.5625 -0.675,1.0125 -0.39375,0.45 -1.125,0.45 l -1.96875,0 9.5625,-21.43125 -23.7375,-54.11249 2.25,0 q 0.61875,0 0.95625,0.3375 0.39375,0.3375 0.50625,0.675 l 20.7,47.47499 q 0.45,1.18125 0.84375,2.5875 0.39375,-1.18125 0.95625,-2.5875 l 20.5875,-47.47499 q 0.225,-0.45 0.5625,-0.73125 0.39375,-0.28125 0.84375,-0.28125 l 2.08125,0 -32.34375,74.08124 z"
           inkscape:connector-curvature="0" />
        <path
           id="path3631"
           style="font-style:normal;font-variant:normal;font-weight:200;font-stretch:normal;font-size:112.49998474px;font-family:Lato;-inkscape-font-specification:'Lato Ultra-Light'"
           d="m 223.3145,898.93099 0,33.07499 -3.09375,0 0,-79.08749 18.9,0 q 13.3875,0 20.30624,5.7375 6.975,5.7375 6.975,17.2125 0,5.00625 -1.96875,9.28125 -1.9125,4.21875 -5.51249,7.3125 -3.6,3.0375 -8.6625,4.78125 -5.00625,1.6875 -11.1375,1.6875 l -15.80625,0 z m 0,-2.53125 15.80625,0 q 5.56875,0 10.0125,-1.575 4.5,-1.575 7.59375,-4.33125 3.14999,-2.75625 4.83749,-6.525 1.6875,-3.76875 1.6875,-8.1 0,-10.0125 -6.01874,-15.24375 -6.01875,-5.23125 -18.1125,-5.23125 l -15.80625,0 0,41.00625 z"
           inkscape:connector-curvature="0" />
        <path
           id="path3633"
           style="font-style:normal;font-variant:normal;font-weight:200;font-stretch:normal;font-size:112.49998474px;font-family:Lato;-inkscape-font-specification:'Lato Ultra-Light'"
           d="m 287.03519,932.00598 -3.09375,0 0,-79.08749 3.09375,0 0,79.08749 z"
           inkscape:connector-curvature="0" />
        <path
           id="path3635"
           style="font-style:normal;font-variant:normal;font-weight:200;font-stretch:normal;font-size:112.49998474px;font-family:Lato;-inkscape-font-specification:'Lato Ultra-Light'"
           d="m 308.54378,932.00598 0,-55.46249 1.35,0 q 1.125,0 1.18125,1.2375 l 0.3375,13.66875 q 2.41875,-7.5375 6.75,-11.64375 4.3875,-4.1625 11.475,-4.1625 1.63125,0 3.31875,0.28125 1.74375,0.225 3.09375,1.0125 l -0.3375,1.74375 q -0.225,0.61875 -0.7875,0.61875 -0.61875,0 -1.9125,-0.39375 -1.2375,-0.45 -3.7125,-0.45 -3.54375,0 -6.24375,1.125 -2.7,1.06875 -4.8375,3.2625 -2.1375,2.1375 -3.76875,5.34375 -1.575,3.20625 -2.925,7.48125 l 0,36.33749 -2.98125,0 z"
           inkscape:connector-curvature="0" />
        <path
           id="path3637"
           style="font-style:normal;font-variant:normal;font-weight:200;font-stretch:normal;font-size:112.49998474px;font-family:Lato;-inkscape-font-specification:'Lato Ultra-Light'"
           d="m 379.8055,932.00598 q -1.125,0 -1.29375,-1.18125 l -0.5625,-8.15625 q -2.30625,2.3625 -4.66875,4.275 -2.30625,1.85625 -4.89375,3.20625 -2.53125,1.29375 -5.5125,2.025 -2.98125,0.73125 -6.58125,0.73125 -2.64375,0 -5.23125,-0.7875 -2.5875,-0.7875 -4.66875,-2.475 -2.08125,-1.6875 -3.375,-4.33125 -1.2375,-2.7 -1.2375,-6.46875 0,-3.65625 2.08125,-6.6375 2.1375,-2.98125 6.58125,-5.11875 4.44375,-2.19374 11.25,-3.43124 6.80625,-1.29375 16.2,-1.51875 l 0,-6.58125 q 0,-8.325 -3.6,-12.9375 -3.6,-4.6125 -10.6875,-4.6125 -4.21875,0 -7.25625,1.2375 -3.0375,1.18125 -5.0625,2.7 -2.025,1.4625 -3.2625,2.7 -1.18125,1.18125 -1.8,1.18125 -0.5625,0 -1.0125,-0.61875 l -0.50625,-0.7875 q 4.1625,-4.275 8.71875,-6.525 4.55625,-2.25 10.40625,-2.25 4.33125,0 7.5375,1.40625 3.20625,1.35 5.2875,3.9375 2.1375,2.5875 3.15,6.3 1.0125,3.65625 1.0125,8.26875 l 0,36.44999 -1.0125,0 z m -22.95,-1.29375 q 3.6,0 6.58125,-0.7875 2.98125,-0.84375 5.5125,-2.25 2.53125,-1.40625 4.725,-3.2625 2.19375,-1.9125 4.21875,-4.05 l 0,-16.08749 q -16.9875,0.5625 -25.14375,4.21874 -8.1,3.65625 -8.1,10.2375 0,3.09375 1.0125,5.34375 1.06875,2.25 2.75625,3.76875 1.74375,1.4625 3.9375,2.19375 2.19375,0.675 4.5,0.675 z"
           inkscape:connector-curvature="0" />
        <path
           id="path3639"
           style="font-style:normal;font-variant:normal;font-weight:200;font-stretch:normal;font-size:112.49998474px;font-family:Lato;-inkscape-font-specification:'Lato Ultra-Light'"
           d="m 435.38753,877.78099 q 0,0.3375 -0.16875,0.61875 -0.1125,0.28125 -0.39375,0.61875 l -37.18125,50.62499 36.16875,0 0,2.3625 -39.88125,0 0,-1.06875 q 0,-0.3375 0.1125,-0.61875 0.16875,-0.28125 0.45,-0.675 l 37.2375,-50.73749 -35.8875,0 0,-2.3625 39.54375,0 0,1.2375 z"
           inkscape:connector-curvature="0" />
        <path
           id="path3641"
           style="font-style:normal;font-variant:normal;font-weight:200;font-stretch:normal;font-size:112.49998474px;font-family:Lato;-inkscape-font-specification:'Lato Ultra-Light'"
           d="m 484.82597,877.78099 q 0,0.3375 -0.16875,0.61875 -0.1125,0.28125 -0.39375,0.61875 l -37.18124,50.62499 36.16874,0 0,2.3625 -39.88124,0 0,-1.06875 q 0,-0.3375 0.1125,-0.61875 0.16875,-0.28125 0.45,-0.675 l 37.23749,-50.73749 -35.88749,0 0,-2.3625 39.54374,0 0,1.2375 z"
           inkscape:connector-curvature="0" />
        <path
           id="path3643"
           style="font-style:normal;font-variant:normal;font-weight:200;font-stretch:normal;font-size:112.49998474px;font-family:Lato;-inkscape-font-specification:'Lato Ultra-Light'"
           d="m 502.42695,876.54349 0,55.46249 -2.925,0 0,-55.46249 2.925,0 z m 2.41875,-20.025 q 0,0.7875 -0.3375,1.4625 -0.3375,0.675 -0.9,1.2375 -0.50625,0.50625 -1.2375,0.84375 -0.675,0.28125 -1.40625,0.28125 -1.575,0 -2.75625,-1.125 -1.12499,-1.18125 -1.12499,-2.7 0,-1.575 1.12499,-2.7 1.18125,-1.18125 2.75625,-1.18125 0.73125,0 1.40625,0.3375 0.73125,0.28125 1.2375,0.84375 0.5625,0.50625 0.9,1.2375 0.3375,0.675 0.3375,1.4625 z"
           inkscape:connector-curvature="0" />
      </g>
    </g>
  </g>
</svg>
