<?xml version="1.0" encoding="UTF-8" standalone="no"?>
<!-- Created with Inkscape (http://www.inkscape.org/) -->

<svg
   xmlns:dc="http://purl.org/dc/elements/1.1/"
   xmlns:cc="http://creativecommons.org/ns#"
   xmlns:rdf="http://www.w3.org/1999/02/22-rdf-syntax-ns#"
   xmlns:svg="http://www.w3.org/2000/svg"
   xmlns="http://www.w3.org/2000/svg"
   xmlns:sodipodi="http://sodipodi.sourceforge.net/DTD/sodipodi-0.dtd"
   xmlns:inkscape="http://www.inkscape.org/namespaces/inkscape"
   width="200"
   height="200"
   viewBox="0 0 199.99999 199.99999"
   id="svg2"
   version="1.1"
   inkscape:version="0.91 r13725"
   sodipodi:docname="logo.svg">
  <defs
     id="defs4" />
  <sodipodi:namedview
     id="base"
     pagecolor="#ffffff"
     bordercolor="#666666"
     borderopacity="1.0"
     inkscape:pageopacity="0.0"
     inkscape:pageshadow="2"
     inkscape:zoom="1.979899"
     inkscape:cx="91.825879"
     inkscape:cy="84.215018"
     inkscape:document-units="px"
     inkscape:current-layer="layer1"
     showgrid="false"
     inkscape:window-width="1600"
     inkscape:window-height="873"
     inkscape:window-x="0"
     inkscape:window-y="27"
     inkscape:window-maximized="1"
     units="px" />
  <metadata
     id="metadata7">
    <rdf:RDF>
      <cc:Work
         rdf:about="">
        <dc:format>image/svg+xml</dc:format>
        <dc:type
           rdf:resource="http://purl.org/dc/dcmitype/StillImage" />
        <dc:title />
      </cc:Work>
    </rdf:RDF>
  </metadata>
  <g
     inkscape:label="Capa 1"
     inkscape:groupmode="layer"
     id="layer1"
     transform="translate(0,-852.36225)">
    <path
       inkscape:connector-curvature="0"
       id="path4198"
       d="m 160.57144,620.21939 0,-128 128,0 128,0 0,128 0,128 -128,0 -128,0 0,-128 z"
       style="fill:#fefefd" />
    <g
       transform="matrix(0.16608649,0,0,0.16608649,202.25867,941.91285)"
       id="g3406">
      <g
         transform="translate(-941.56112,-290.71242)"
         id="g3393">
        <path
           inkscape:connector-curvature="0"
           style="fill:#c1c95a"
           d="m 16.516,224.391 c 0,166.249 137.882,115.798 239.484,115.621 101.602,0.176 239.484,50.627 239.484,-115.621 l -132.13,-58.107 -214.71,0 -132.128,58.107 z"
           id="path3" />
        <path
           inkscape:connector-curvature="0"
           style="fill:#a1c65d"
           d="m 99.097,273.639 14.136,0 c 12.816,-7.003 25.392,-18.411 36.376,-36.893 25.234,-42.457 79.794,-43.74 106.392,-43.74 26.598,0 81.158,1.283 106.392,43.74 10.984,18.482 23.56,29.891 36.376,36.893 l 14.136,0 0,-148.646 -313.808,0 0,148.646 z"
           id="path5" />
        <path
           inkscape:connector-curvature="0"
           style="fill:#82c35f"
           d="M 468.783,80.706 C 436.047,24.34 320.921,58.929 256.001,58.929 c -64.92,0 -180.048,-34.589 -212.784,21.777 -76.611,131.913 -8.184,217.707 24.552,217.707 25.308,0 57.48,-8.71 81.84,-64.419 25.234,-57.709 79.794,-59.452 106.392,-59.452 26.598,0 81.158,1.743 106.392,59.452 24.359,55.709 56.533,64.419 81.84,64.419 32.735,0 101.162,-85.794 24.55,-217.707 z"
           id="path7" />
        <g
           id="g9">
          <path
             inkscape:connector-curvature="0"
             style="fill:#73af55"
             d="m 38.122,281.598 c 1.055,0.106 2.099,0.297 3.168,0.297 31.926,0 57.807,-48.064 57.807,-107.355 0,-52.262 -20.118,-95.755 -46.75,-105.342 -3.484,3.345 -6.582,7.121 -9.13,11.507 -56.654,97.551 -33.984,169.831 -5.095,200.893 z"
             id="path11" />
          <path
             inkscape:connector-curvature="0"
             style="fill:#73af55"
             d="m 473.882,281.598 c -1.055,0.106 -2.099,0.297 -3.168,0.297 -31.926,0 -57.807,-48.064 -57.807,-107.355 0,-52.262 20.118,-95.755 46.75,-105.342 3.484,3.345 6.582,7.121 9.13,11.507 56.654,97.551 33.985,169.831 5.095,200.893 z"
             id="path13" />
        </g>
        <ellipse
           style="fill:#ffce56"
           cx="41.290001"
           cy="170.715"
           rx="41.290001"
           ry="78.452003"
           id="ellipse15" />
        <ellipse
           style="fill:#464655"
           cx="41.290001"
           cy="170.715"
           rx="16.516001"
           ry="45.418999"
           id="ellipse17" />
        <ellipse
           style="fill:#ffce56"
           cx="470.711"
           cy="170.715"
           rx="41.290001"
           ry="78.452003"
           id="ellipse19" />
        <ellipse
           style="fill:#464655"
           cx="470.711"
           cy="170.715"
           rx="16.516001"
           ry="45.418999"
           id="ellipse21" />
        <path
           inkscape:connector-curvature="0"
           style="fill:#ff825f"
           d="m 294.871,449.477 -26.549,-26.549 c 0.011,-0.218 0.065,-0.424 0.065,-0.645 l 0,-247.742 c 0,-6.839 -5.548,-12.387 -12.387,-12.387 -6.839,0 -12.387,5.548 -12.387,12.387 l 0,247.742 c 0,0.221 0.054,0.427 0.065,0.645 l -26.549,26.549 c -3.226,3.226 -3.226,8.452 0,11.678 3.226,3.226 8.451,3.226 11.677,0 l 26.549,-26.549 c 0.218,0.011 0.424,0.065 0.644,0.065 0.22,0 0.427,-0.054 0.645,-0.065 l 26.549,26.549 c 1.613,1.613 3.725,2.42 5.838,2.42 2.113,0 4.226,-0.806 5.838,-2.42 3.228,-3.226 3.228,-8.452 0.002,-11.678 z"
           id="path23" />
      </g>
      <path
         style="fill:#333333"
         inkscape:connector-curvature="0"
         id="path49"
         d="m -242.5814,633.15189 c 11.80758,0 22.92059,-3.47282 32.64448,-11.11302 l 73.62372,-55.56507 c 10.41845,-8.33476 15.97495,-18.05865 15.28039,-29.86622 0,-11.80758 -5.55651,-25.00429 -15.28039,-38.20099 l -229.20592,-302.82958 6.25107,-7.64019 c 47.92487,-59.03789 79.18022,-129.883356 89.59868,-206.285326 31.25535,-227.122234 -139.60725,-453.549914 -366.72948,-484.805264 -19.44778,-2.77825 -38.89555,-4.16738 -57.64876,-4.16738 -206.28547,0 -384.09379,154.88764 -412.57089,359.78385 -15.2804,108.351884 15.975,223.649414 86.1259,316.02634 69.45639,92.37693 172.25191,153.49851 280.6038,168.77891 19.44778,2.77825 38.20099,4.16738 57.64876,4.16738 54.17595,0 107.65733,-10.41845 157.6659,-31.25535 l 8.33476,-3.47282 229.90048,304.2187 c 10.41845,14.58583 26.39341,22.22603 43.7575,22.22603 l 0,0 z M -377.3267,-32.239776 C -398.1636,119.8696 -529.43609,234.47256 -682.9346,234.47256 c -14.58583,0 -28.4771,-0.69456 -43.06293,-2.77825 -80.56936,-11.11301 -156.97147,-57.64876 -209.75829,-127.1051 -52.78682,-69.456336 -76.40198,-155.582196 -65.28898,-236.15156 20.83693,-152.10938 152.10955,-266.71235 305.60806,-266.71235 13.89127,0 28.4771,0.69457 43.06293,2.77826 170.8626,23.61515 298.66226,193.78319 275.04711,363.256664 z" />
    </g>
  </g>
</svg>
