<?xml version="1.0" encoding="UTF-8" standalone="no"?>
<!-- Created with Inkscape (http://www.inkscape.org/) -->

<svg
   xmlns:dc="http://purl.org/dc/elements/1.1/"
   xmlns:cc="http://creativecommons.org/ns#"
   xmlns:rdf="http://www.w3.org/1999/02/22-rdf-syntax-ns#"
   xmlns:svg="http://www.w3.org/2000/svg"
   xmlns="http://www.w3.org/2000/svg"
   xmlns:sodipodi="http://sodipodi.sourceforge.net/DTD/sodipodi-0.dtd"
   xmlns:inkscape="http://www.inkscape.org/namespaces/inkscape"
   width="885"
   height="300"
   viewBox="0 0 884.99996 299.99998"
   id="svg2"
   version="1.1"
   inkscape:version="0.91 r13725"
   sodipodi:docname="title.svg">
  <defs
     id="defs4" />
  <sodipodi:namedview
     id="base"
     pagecolor="#ffffff"
     bordercolor="#666666"
     borderopacity="1.0"
     inkscape:pageopacity="0.0"
     inkscape:pageshadow="2"
     inkscape:zoom="0.98994949"
     inkscape:cx="307.81682"
     inkscape:cy="174.63164"
     inkscape:document-units="px"
     inkscape:current-layer="layer1"
     showgrid="false"
     inkscape:window-width="1600"
     inkscape:window-height="873"
     inkscape:window-x="0"
     inkscape:window-y="27"
     inkscape:window-maximized="1"
     units="px" />
  <metadata
     id="metadata7">
    <rdf:RDF>
      <cc:Work
         rdf:about="">
        <dc:format>image/svg+xml</dc:format>
        <dc:type
           rdf:resource="http://purl.org/dc/dcmitype/StillImage" />
        <dc:title />
      </cc:Work>
    </rdf:RDF>
  </metadata>
  <g
     inkscape:label="Capa 1"
     inkscape:groupmode="layer"
     id="layer1"
     transform="translate(0,-752.36226)">
    <path
       inkscape:connector-curvature="0"
       id="path4198"
       d="m 160.57144,620.21939 0,-128 128,0 128,0 0,128 0,128 -128,0 -128,0 0,-128 z"
       style="fill:#fefefd" />
    <g
       style="font-style:normal;font-weight:normal;font-size:40px;line-height:125%;font-family:sans-serif;letter-spacing:0px;word-spacing:0px;fill:#000000;fill-opacity:1;stroke:none;stroke-width:1px;stroke-linecap:butt;stroke-linejoin:miter;stroke-opacity:1"
       id="text4146">
      <g
         style="font-style:normal;font-weight:normal;font-size:40px;line-height:125%;font-family:sans-serif;letter-spacing:0px;word-spacing:0px;fill:#000000;fill-opacity:1;stroke:none;stroke-width:1px;stroke-linecap:butt;stroke-linejoin:miter;stroke-opacity:1"
         id="text4154" />
    </g>
    <g
       style="font-style:normal;font-weight:normal;font-size:40px;line-height:125%;font-family:sans-serif;letter-spacing:0px;word-spacing:0px;fill:#000000;fill-opacity:1;stroke:none;stroke-width:1px;stroke-linecap:butt;stroke-linejoin:miter;stroke-opacity:1"
       id="text3585">
      <path
         d="m 244.3945,898.93099 0,33.07499 -3.09375,0 0,-79.08749 18.9,0 q 13.3875,0 20.30625,5.7375 6.975,5.7375 6.975,17.2125 0,5.00625 -1.96875,9.28125 -1.9125,4.21875 -5.5125,7.3125 -3.6,3.0375 -8.6625,4.78125 -5.00625,1.6875 -11.1375,1.6875 l -15.80625,0 z m 0,-2.53125 15.80625,0 q 5.56875,0 10.0125,-1.575 4.5,-1.575 7.59375,-4.33125 3.15,-2.75625 4.8375,-6.525 1.6875,-3.76875 1.6875,-8.1 0,-10.0125 -6.01875,-15.24375 -6.01875,-5.23125 -18.1125,-5.23125 l -15.80625,0 0,41.00625 z"
         style="font-style:normal;font-variant:normal;font-weight:200;font-stretch:normal;font-size:112.49998474px;font-family:Lato;-inkscape-font-specification:'Lato Ultra-Light'"
         id="path3608" />
      <path
         d="m 313.1777,950.62473 q -0.28125,0.5625 -0.675,1.0125 -0.39375,0.45 -1.125,0.45 l -1.96875,0 9.5625,-21.43125 -23.7375,-54.11249 2.25,0 q 0.61875,0 0.95625,0.3375 0.39375,0.3375 0.50625,0.675 l 20.7,47.47499 q 0.45,1.18125 0.84375,2.5875 0.39375,-1.18125 0.95625,-2.5875 l 20.58749,-47.47499 q 0.225,-0.45 0.5625,-0.73125 0.39375,-0.28125 0.84375,-0.28125 l 2.08125,0 -32.34374,74.08124 z"
         style="font-style:normal;font-variant:normal;font-weight:200;font-stretch:normal;font-size:112.49998474px;font-family:Lato;-inkscape-font-specification:'Lato Ultra-Light'"
         id="path3610" />
      <path
         d="m 362.16792,898.93099 0,33.07499 -3.09375,0 0,-79.08749 18.9,0 q 13.3875,0 20.30625,5.7375 6.975,5.7375 6.975,17.2125 0,5.00625 -1.96875,9.28125 -1.9125,4.21875 -5.5125,7.3125 -3.6,3.0375 -8.6625,4.78125 -5.00625,1.6875 -11.1375,1.6875 l -15.80625,0 z m 0,-2.53125 15.80625,0 q 5.56875,0 10.0125,-1.575 4.5,-1.575 7.59375,-4.33125 3.15,-2.75625 4.8375,-6.525 1.6875,-3.76875 1.6875,-8.1 0,-10.0125 -6.01875,-15.24375 -6.01875,-5.23125 -18.1125,-5.23125 l -15.80625,0 0,41.00625 z"
         style="font-style:normal;font-variant:normal;font-weight:200;font-stretch:normal;font-size:112.49998474px;font-family:Lato;-inkscape-font-specification:'Lato Ultra-Light'"
         id="path3612" />
      <path
         d="m 425.88861,932.00598 -3.09375,0 0,-79.08749 3.09375,0 0,79.08749 z"
         style="font-style:normal;font-variant:normal;font-weight:200;font-stretch:normal;font-size:112.49998474px;font-family:Lato;-inkscape-font-specification:'Lato Ultra-Light'"
         id="path3614" />
      <path
         d="m 447.39721,932.00598 0,-55.46249 1.35,0 q 1.125,0 1.18125,1.2375 l 0.3375,13.66875 q 2.41875,-7.5375 6.74999,-11.64375 4.3875,-4.1625 11.475,-4.1625 1.63125,0 3.31875,0.28125 1.74375,0.225 3.09375,1.0125 l -0.3375,1.74375 q -0.225,0.61875 -0.7875,0.61875 -0.61875,0 -1.9125,-0.39375 -1.2375,-0.45 -3.7125,-0.45 -3.54375,0 -6.24375,1.125 -2.7,1.06875 -4.8375,3.2625 -2.13749,2.1375 -3.76874,5.34375 -1.575,3.20625 -2.925,7.48125 l 0,36.33749 -2.98125,0 z"
         style="font-style:normal;font-variant:normal;font-weight:200;font-stretch:normal;font-size:112.49998474px;font-family:Lato;-inkscape-font-specification:'Lato Ultra-Light'"
         id="path3616" />
      <path
         d="m 518.65892,932.00598 q -1.125,0 -1.29375,-1.18125 l -0.5625,-8.15625 q -2.30625,2.3625 -4.66875,4.275 -2.30625,1.85625 -4.89375,3.20625 -2.53125,1.29375 -5.5125,2.025 -2.98125,0.73125 -6.58125,0.73125 -2.64375,0 -5.23125,-0.7875 -2.5875,-0.7875 -4.66874,-2.475 -2.08125,-1.6875 -3.375,-4.33125 -1.2375,-2.7 -1.2375,-6.46875 0,-3.65625 2.08125,-6.6375 2.1375,-2.98125 6.58124,-5.11875 4.44375,-2.19374 11.25,-3.43124 6.80625,-1.29375 16.2,-1.51875 l 0,-6.58125 q 0,-8.325 -3.6,-12.9375 -3.6,-4.6125 -10.6875,-4.6125 -4.21875,0 -7.25625,1.2375 -3.0375,1.18125 -5.0625,2.7 -2.025,1.4625 -3.2625,2.7 -1.18125,1.18125 -1.79999,1.18125 -0.5625,0 -1.0125,-0.61875 l -0.50625,-0.7875 q 4.16249,-4.275 8.71874,-6.525 4.55625,-2.25 10.40625,-2.25 4.33125,0 7.5375,1.40625 3.20625,1.35 5.2875,3.9375 2.1375,2.5875 3.15,6.3 1.0125,3.65625 1.0125,8.26875 l 0,36.44999 -1.0125,0 z m -22.95,-1.29375 q 3.6,0 6.58125,-0.7875 2.98125,-0.84375 5.5125,-2.25 2.53125,-1.40625 4.725,-3.2625 2.19375,-1.9125 4.21875,-4.05 l 0,-16.08749 q -16.9875,0.5625 -25.14375,4.21874 -8.09999,3.65625 -8.09999,10.2375 0,3.09375 1.0125,5.34375 1.06874,2.25 2.75624,3.76875 1.74375,1.4625 3.9375,2.19375 2.19375,0.675 4.5,0.675 z"
         style="font-style:normal;font-variant:normal;font-weight:200;font-stretch:normal;font-size:112.49998474px;font-family:Lato;-inkscape-font-specification:'Lato Ultra-Light'"
         id="path3618" />
      <path
         d="m 574.24095,877.78099 q 0,0.3375 -0.16875,0.61875 -0.1125,0.28125 -0.39375,0.61875 l -37.18124,50.62499 36.16874,0 0,2.3625 -39.88124,0 0,-1.06875 q 0,-0.3375 0.1125,-0.61875 0.16875,-0.28125 0.45,-0.675 l 37.23749,-50.73749 -35.88749,0 0,-2.3625 39.54374,0 0,1.2375 z"
         style="font-style:normal;font-variant:normal;font-weight:200;font-stretch:normal;font-size:112.49998474px;font-family:Lato;-inkscape-font-specification:'Lato Ultra-Light'"
         id="path3620" />
      <path
         d="m 623.6794,877.78099 q 0,0.3375 -0.16875,0.61875 -0.1125,0.28125 -0.39375,0.61875 l -37.18125,50.62499 36.16875,0 0,2.3625 -39.88125,0 0,-1.06875 q 0,-0.3375 0.1125,-0.61875 0.16875,-0.28125 0.45,-0.675 l 37.2375,-50.73749 -35.8875,0 0,-2.3625 39.54375,0 0,1.2375 z"
         style="font-style:normal;font-variant:normal;font-weight:200;font-stretch:normal;font-size:112.49998474px;font-family:Lato;-inkscape-font-specification:'Lato Ultra-Light'"
         id="path3622" />
      <path
         d="m 641.28038,876.54349 0,55.46249 -2.925,0 0,-55.46249 2.925,0 z m 2.41875,-20.025 q 0,0.7875 -0.3375,1.4625 -0.3375,0.675 -0.9,1.2375 -0.50625,0.50625 -1.2375,0.84375 -0.675,0.28125 -1.40625,0.28125 -1.575,0 -2.75625,-1.125 -1.125,-1.18125 -1.125,-2.7 0,-1.575 1.125,-2.7 1.18125,-1.18125 2.75625,-1.18125 0.73125,0 1.40625,0.3375 0.73125,0.28125 1.2375,0.84375 0.5625,0.50625 0.9,1.2375 0.3375,0.675 0.3375,1.4625 z"
         style="font-style:normal;font-variant:normal;font-weight:200;font-stretch:normal;font-size:112.49998474px;font-family:Lato;-inkscape-font-specification:'Lato Ultra-Light'"
         id="path3624" />
    </g>
  </g>
</svg>
